<svg xmlns="http://www.w3.org/2000/svg" width="709" height="1024" viewBox="0 0 709 1024" version="1.1"><path d="M 424.769 35.437 C 419.162 38.362, 405.175 50.154, 395.446 60.160 C 383.237 72.715, 369.845 90.357, 363.308 102.495 C 360 108.638, 357.591 111.909, 355.713 112.809 C 354.201 113.534, 352.228 115.249, 351.329 116.620 C 348.175 121.435, 341.369 125.159, 334.672 125.735 C 331.277 126.027, 327.894 126.747, 327.153 127.336 C 326.413 127.924, 323.038 128.461, 319.653 128.529 C 305.347 128.817, 305.980 128.649, 306.650 132 C 306.980 133.650, 306.854 135, 306.369 135 C 305.885 135, 304.852 136.437, 304.074 138.194 C 302.505 141.740, 298.999 145.230, 294.599 147.627 C 291.840 149.130, 288.164 149.065, 281.455 147.395 C 280.044 147.044, 278.030 148.098, 274.955 150.796 C 269.397 155.675, 265.747 157.557, 260 158.509 C 257.525 158.918, 254.193 160.351, 252.596 161.692 C 248.668 164.990, 237.724 170.385, 231 172.339 C 227.975 173.217, 224.253 175.103, 222.729 176.528 C 216.729 182.140, 209.134 183.416, 202.461 179.932 C 200.283 178.794, 194.639 176.582, 189.919 175.016 C 185.200 173.451, 179.697 171.055, 177.690 169.693 C 174.194 167.321, 157.751 160, 155.918 160 C 155.433 160, 147.716 158.156, 138.768 155.902 C 129.821 153.648, 120.588 151.398, 118.250 150.902 C 115.912 150.406, 111.862 149.542, 109.250 148.982 C 89.698 144.790, 54.213 142.646, 43 144.980 C 32.445 147.176, 32.530 147.124, 32.198 151.659 C 31.887 155.894, 34.260 161.132, 45.936 182 C 51.375 191.720, 77 244.095, 77 245.492 C 77 245.807, 78.782 250.663, 80.959 256.283 C 83.137 261.902, 85.859 270.325, 87.009 275 C 90.956 291.051, 103.263 317.415, 111.050 326.500 C 113.879 329.800, 117.288 334.199, 118.625 336.276 L 121.058 340.052 117.900 346.776 C 114.176 354.706, 110.048 369.799, 110.020 375.590 C 110.001 379.395, 109.583 380.003, 104 384.338 C 100.360 387.166, 98 389.755, 98 390.922 C 98 391.981, 96.987 394.119, 95.750 395.673 C 92.513 399.740, 90 404.525, 90 406.621 C 90 409.476, 86.834 417.244, 84.510 420.092 C 83.347 421.517, 81.799 425.342, 81.070 428.592 C 80.341 431.841, 78.910 436.285, 77.890 438.468 C 75.696 443.161, 76.471 444.404, 80.615 442.839 C 84.493 441.375, 88.480 442.387, 91.210 445.526 C 92.393 446.887, 93.776 448, 94.283 448 C 94.791 448, 97.458 450.025, 100.211 452.500 C 102.964 454.975, 105.683 457, 106.254 457 C 108.077 457, 120.849 468.636, 124.849 473.941 C 126.770 476.487, 126.972 477.329, 125.955 478.554 C 124.732 480.028, 112.710 486, 110.966 486 C 109.155 486, 94.990 495.197, 93.100 497.600 C 92.027 498.964, 90.683 502.251, 90.114 504.902 C 88.569 512.108, 88.860 527.671, 90.656 533.872 C 92.738 541.058, 97.670 548, 100.693 548 C 101.962 548, 103 548.382, 103 548.850 C 103 549.317, 107.219 553.386, 112.376 557.892 C 120.943 565.377, 121.899 566.578, 123.444 571.792 C 124.374 574.932, 125.555 578.534, 126.068 579.797 C 126.580 581.060, 127 582.860, 127.001 583.797 C 127.002 586.794, 132.647 597.371, 136.380 601.372 C 138.367 603.502, 142.020 606.529, 144.497 608.100 C 147.727 610.148, 149 611.614, 149 613.284 C 149 614.564, 146.106 620.477, 142.568 626.423 C 131.104 645.696, 128.408 655.010, 127.059 680 C 126.349 693.156, 125.135 700.965, 122.939 706.500 C 121.724 709.565, 120.715 717.887, 120.818 724 C 121.326 754.075, 122.183 769.994, 124.370 790 C 126.909 813.217, 128.722 822.267, 132.987 833 C 134.189 836.025, 136.517 842.550, 138.161 847.500 C 141.425 857.328, 141.902 858.484, 147.849 871 C 152.649 881.101, 154.005 882.928, 157.136 883.512 C 158.436 883.754, 161.525 886.114, 164 888.756 C 168.577 893.642, 169.440 894.733, 176.500 904.567 C 182.043 912.288, 191.701 923.812, 196.138 928 C 198.177 929.925, 202.174 936, 205.018 941.500 L 210.190 951.500 209.775 963.500 C 209.326 976.482, 209.403 976.204, 196.589 1010.941 C 194.065 1017.783, 192 1023.520, 192 1023.691 C 192 1023.861, 270.075 1024, 365.500 1024 C 467.578 1024, 539 1023.630, 539 1023.100 C 539 1022.606, 537.377 1019.793, 535.394 1016.850 C 528.510 1006.634, 527 1002.701, 527 994.984 C 527 985.305, 528.450 982.955, 538.372 976.554 C 548.387 970.094, 550.819 967.312, 556.706 955.589 C 559.216 950.590, 563.730 942.460, 566.738 937.523 C 578.017 919.006, 582.056 909.139, 585.501 891.683 C 587.220 882.974, 587.137 877.457, 585.171 869.760 L 584.215 866.019 588.354 864.905 C 593.271 863.581, 624.831 864.653, 635 866.490 C 637.832 867.001, 640.055 866.363, 646.640 863.150 C 654.511 859.310, 654.835 859.013, 656.445 854.166 C 657.360 851.409, 658.763 848.612, 659.561 847.949 C 660.359 847.287, 663.516 843.171, 666.577 838.804 C 678.526 821.751, 681.379 804.555, 674.929 788.477 C 673.721 785.466, 672.705 772.675, 672.946 763.500 C 673.018 760.750, 671.892 753.550, 670.443 747.500 C 666.912 732.754, 666.183 730.343, 663.492 724.500 C 662.226 721.750, 659.965 716.817, 658.468 713.537 C 655.504 707.042, 651.713 700.756, 648.672 697.295 C 647.607 696.082, 645.282 692.257, 643.506 688.795 C 641.730 685.333, 635.798 673.725, 630.323 663 C 618.439 639.722, 612.715 630.603, 606.354 624.815 C 603.746 622.442, 600.799 619.712, 599.806 618.750 C 597.676 616.686, 597.392 610.750, 599.346 609.128 C 601.347 607.467, 603.599 601.476, 605.562 592.591 C 607.813 582.396, 606.861 574.746, 600.883 555 C 598.855 548.301, 589.078 534.076, 580.010 524.630 C 575.604 520.041, 572 515.833, 572 515.278 C 572 512.980, 567.141 508.401, 559.409 503.413 C 554.885 500.495, 550.879 497.613, 550.505 497.008 C 550.132 496.404, 552.453 492.519, 555.663 488.374 C 574.374 464.220, 575.779 461.985, 577.499 453.637 C 579.940 441.793, 574.689 415.073, 568.039 405.500 C 561.819 396.547, 558.610 388.795, 558.646 382.815 C 558.676 377.932, 559.245 376.238, 562.682 370.815 C 574.775 351.733, 578.070 344.837, 579.990 334.598 C 581.718 325.381, 580.790 310.047, 578.138 304 C 577.053 301.525, 575.872 297.250, 575.514 294.500 C 574.197 284.395, 572.517 278.405, 569.902 274.500 C 568.429 272.300, 567.057 269.616, 566.855 268.535 C 566.630 267.338, 565.241 266.214, 563.296 265.656 C 561.176 265.048, 559.599 263.674, 558.597 261.563 C 557.768 259.816, 555.832 257.739, 554.295 256.948 C 549.387 254.423, 535.086 240.667, 534.475 237.883 C 533.772 234.687, 523.647 225.600, 515.867 221.184 C 508.303 216.891, 507.455 215.684, 507.730 209.596 C 507.935 205.024, 507.501 203.831, 503.508 198 C 499.309 191.867, 496 184.513, 496 181.313 C 496 180.523, 494.446 176.642, 492.546 172.688 C 489.983 167.355, 488.669 162.661, 487.456 154.500 C 486.556 148.450, 485.230 141.475, 484.509 139 C 483.788 136.525, 482.894 133.043, 482.522 131.261 C 482.150 129.480, 481.431 127.766, 480.923 127.452 C 480.415 127.139, 480 125.994, 480 124.910 C 480 123.825, 479.323 122.677, 478.495 122.360 C 476.442 121.572, 474.234 116.605, 473.001 110 C 468.715 87.034, 451.260 53.048, 436.658 39.238 C 430.788 33.686, 429.137 33.158, 424.769 35.437" stroke="none" fill="#040404" fill-rule="evenodd"/></svg>