<svg xmlns="http://www.w3.org/2000/svg" width="709" height="1024" viewBox="0 0 709 1024" version="1.1"><path d="M 124 23.244 C 117.363 24.917, 116.527 27.693, 114.437 55 C 112.115 85.337, 113.534 102.248, 121.529 139.500 C 127.783 168.640, 128.815 174.395, 129.957 186.500 C 130.579 193.100, 131.805 203.040, 132.682 208.589 C 134.704 221.397, 133.863 226.335, 129.575 226.830 L 126.714 227.160 127.289 236.034 C 127.605 240.915, 127.433 246.470, 126.906 248.379 C 126.062 251.435, 126.429 252.864, 129.974 260.325 C 133.859 268.502, 135.285 276.381, 133.250 278.417 C 132.838 278.829, 132.491 282.030, 132.480 285.530 C 132.463 291.103, 132.050 292.475, 129.149 296.591 L 125.838 301.289 127.919 304.104 C 130.713 307.884, 130.547 309.613, 127 313.653 C 125.350 315.532, 124 317.626, 124 318.307 C 124 318.988, 122.719 321.109, 121.153 323.022 C 118.382 326.409, 116 330.295, 116 331.431 C 116 331.741, 117.637 333.806, 119.637 336.020 C 123.137 339.895, 123.254 340.263, 122.746 345.866 C 122.456 349.067, 120.566 356.521, 118.547 362.431 C 115.150 372.372, 114.960 373.524, 116.010 377.838 C 118.155 386.648, 118.930 394.759, 117.952 398.167 C 116.704 402.520, 116.773 417.421, 118.066 422.500 C 118.625 424.700, 119.074 431.590, 119.062 437.811 C 119.046 446.665, 118.670 449.751, 117.329 452.020 C 115.705 454.769, 115.709 455.021, 117.406 456.896 C 118.391 457.984, 118.928 459.307, 118.601 459.837 C 118.274 460.366, 117.554 465.161, 117.001 470.491 C 115.296 486.936, 110.214 504.303, 105.172 510.918 C 101.677 515.502, 95.401 528.458, 94.474 533 C 93.442 538.053, 91.195 542, 89.349 542 C 88.096 542, 87.883 542.667, 88.366 545.081 C 88.705 546.776, 89.250 555.888, 89.577 565.331 C 90.055 579.121, 90.724 584.862, 92.974 594.500 C 94.514 601.100, 96.331 611.225, 97.010 617 C 97.690 622.775, 98.865 629.428, 99.623 631.785 C 100.380 634.142, 101.005 638.192, 101.012 640.785 C 101.018 643.378, 101.667 647.918, 102.454 650.873 C 103.241 653.829, 104.171 659.904, 104.522 664.373 C 105.183 672.788, 106.541 678.239, 110.532 688.502 C 111.815 691.804, 113.157 696.979, 113.514 700.002 C 113.870 703.026, 115.440 708.875, 117.003 713 C 118.566 717.125, 120.579 722.828, 121.477 725.673 C 122.375 728.518, 123.760 731.386, 124.555 732.045 C 125.350 732.705, 126 733.887, 126 734.672 C 126 735.457, 126.745 737.539, 127.656 739.300 C 128.567 741.060, 130.799 749.129, 132.615 757.231 C 136.364 773.950, 138.642 780.046, 149.476 802.332 C 159.921 823.819, 160.802 826.938, 163.925 853.500 C 165.309 865.273, 167.314 872.271, 171.088 878.497 C 173.923 883.175, 175.079 884.201, 178.475 885.045 C 180.689 885.595, 183.281 886.486, 184.236 887.023 C 185.191 887.560, 187.072 888, 188.415 888 C 191.324 888, 193.793 890.261, 195.596 894.575 C 197.386 898.859, 195.978 903.584, 191.056 909.810 C 187.035 914.897, 184.562 916, 177.176 916 C 173.975 916, 172.759 916.902, 165.551 924.625 C 157.824 932.903, 151.704 937.931, 136.500 948.494 C 124.458 956.860, 114.624 965.553, 102.861 978.233 C 96.612 984.967, 89.700 992.307, 87.500 994.543 C 85.300 996.779, 81.250 1001.447, 78.500 1004.917 C 75.750 1008.386, 71.816 1013.223, 69.757 1015.665 C 67.698 1018.107, 65.545 1020.982, 64.972 1022.053 C 63.940 1023.980, 66.885 1024, 356.415 1024 C 630.478 1024, 648.960 1023.893, 649.851 1022.303 C 651.115 1020.044, 649.779 1016.722, 645.105 1010.500 C 638.290 1001.429, 634.384 994.613, 624.588 974.704 C 611.030 947.151, 594.525 917.273, 582.622 898.739 C 567.971 875.925, 553.335 851.492, 549.831 844 C 548.160 840.425, 545.948 834.200, 544.916 830.167 C 542.883 822.223, 542.884 822.257, 543.403 779.500 C 543.730 752.505, 543.925 749.849, 546.224 741.079 C 548.150 733.734, 549.154 731.487, 550.782 730.885 C 553.411 729.912, 554.581 727.695, 555.470 722 C 555.856 719.525, 557.025 715.025, 558.068 712 C 560.597 704.662, 562.808 690.848, 563.502 678.058 C 563.813 672.315, 564.540 665.740, 565.118 663.446 C 568.317 650.743, 560.521 612.862, 551.547 597.500 C 549.297 593.650, 546.792 589.310, 545.979 587.856 C 545.165 586.401, 542.889 582.800, 540.920 579.853 C 538.952 576.905, 537.013 573.145, 536.612 571.497 C 535.480 566.845, 532.077 560.156, 526.946 552.500 C 524.366 548.650, 521.067 543.587, 519.615 541.250 C 518.163 538.913, 516.418 537.005, 515.737 537.010 C 513.745 537.026, 503.258 525.040, 502.663 522.067 C 502.335 520.423, 498.220 515.342, 492.242 509.199 C 486.809 503.616, 481.890 498.024, 481.312 496.774 C 477.748 489.062, 475.868 483.955, 475.137 480 C 474.121 474.502, 471.030 467.935, 469 466.962 C 468.175 466.566, 465.813 465.520, 463.750 464.638 C 461.688 463.755, 460 462.532, 460 461.921 C 460 461.309, 459.082 459.519, 457.960 457.943 C 456.838 456.367, 454.603 451.134, 452.993 446.313 C 449.276 435.179, 449.824 434.018, 460.244 430.956 C 468.799 428.442, 478.454 423.304, 482.092 419.331 C 486.151 414.897, 490.276 408.413, 496.616 396.500 L 502.470 385.500 502.722 373 C 502.972 360.616, 504.580 353.030, 507.331 351.254 C 509.566 349.812, 518.146 338.999, 521.604 333.267 C 523.518 330.095, 526.003 324.483, 527.126 320.795 C 528.249 317.107, 530.482 312.105, 532.089 309.680 C 533.695 307.254, 535.380 303.296, 535.832 300.885 C 537 294.645, 541.113 288.710, 546.425 285.597 C 548.941 284.122, 550.993 282.372, 550.985 281.708 C 550.977 281.044, 550.239 278.475, 549.344 276 C 545.245 264.661, 544.364 252.369, 546.951 242.594 C 547.984 238.692, 548.980 233.307, 549.165 230.627 C 549.523 225.416, 548.929 224.626, 543.850 223.566 C 542.052 223.190, 540.863 222.045, 540.152 220.006 C 539.576 218.353, 538.626 217, 538.043 217 C 537.086 217, 531.912 207.103, 530.593 202.750 C 530.270 201.684, 529.074 201, 527.531 201 C 523.921 201, 521 197.679, 521 193.573 C 521 191.084, 520.297 189.592, 518.435 188.127 C 515.006 185.430, 515.084 182.190, 518.799 172.930 C 523.415 161.426, 527.267 147.556, 534.472 116.500 C 539.970 92.800, 541.386 80.448, 540.743 61.799 C 540.134 44.112, 538.832 37.130, 535.573 34.068 C 530.390 29.199, 525.943 31.124, 517.815 41.755 C 507.947 54.663, 500.380 62.154, 491.457 67.848 C 487.081 70.640, 479.479 75.516, 474.566 78.682 C 469.444 81.982, 458.410 91.066, 448.709 99.969 C 414.978 130.928, 411.604 133.883, 409.329 134.454 C 408.057 134.773, 405.551 134.351, 403.758 133.517 C 399.003 131.303, 391.856 127.173, 390.059 125.600 C 389.202 124.849, 385.458 123.921, 381.741 123.537 C 374.867 122.827, 372 121.248, 372 118.173 C 372 117.111, 370.652 116.067, 368.347 115.346 C 365.257 114.379, 363.993 114.503, 360.159 116.146 C 354.463 118.588, 351.762 118.251, 350.982 115 C 350.493 112.964, 349.837 112.540, 347.441 112.717 C 339.175 113.328, 332.205 113.084, 329.670 112.094 C 325.938 110.636, 310.686 110.496, 305 111.866 C 298.079 113.535, 291.001 113.207, 284.177 110.902 C 278.769 109.076, 276.576 107.449, 267.233 98.337 C 257.374 88.722, 244.865 78.499, 228.888 67 C 217.571 58.856, 197.607 48.039, 173 36.721 C 156.489 29.126, 129.792 21.783, 124 23.244" stroke="none" fill="#040404" fill-rule="evenodd"/></svg>