<svg xmlns="http://www.w3.org/2000/svg" width="709" height="1024" viewBox="0 0 709 1024" version="1.1"><path d="M 522.500 21.360 C 504.835 32.366, 492.960 41.957, 471.945 62.191 C 451.342 82.028, 446.370 87.475, 436.979 100.500 C 430.203 109.898, 420.902 118.303, 413 122.170 C 408.919 124.167, 404.639 127.345, 401.500 130.711 C 396.573 135.992, 396.452 136.052, 393.254 134.818 C 390.516 133.761, 389.576 133.814, 387.254 135.159 C 385.494 136.178, 383.778 136.472, 382.500 135.972 C 381.400 135.542, 379.488 135.421, 378.250 135.703 C 376.853 136.022, 376 135.748, 376 134.981 C 376 133.555, 368.160 134.443, 366.550 136.051 C 364.943 137.656, 363 137.109, 361.932 134.750 C 359.789 130.013, 358.129 127.742, 355.855 126.438 C 351.252 123.795, 348.713 122.956, 346.983 123.505 C 346.019 123.811, 344.066 123.532, 342.645 122.884 C 340.595 121.950, 339.722 121.986, 338.433 123.056 C 337.048 124.205, 336.665 124.152, 335.854 122.703 C 334.836 120.884, 331 120.329, 331 122 C 331 122.550, 330.373 123, 329.607 123 C 328.841 123, 327.931 123.736, 327.586 124.636 C 327.005 126.151, 326.824 126.151, 325.150 124.636 C 322.597 122.325, 320.816 122.589, 321.187 125.224 C 321.417 126.858, 320.718 127.825, 318.550 128.874 C 316.418 129.905, 315.494 129.982, 315.217 129.150 C 314.660 127.479, 311.037 127.740, 310.362 129.500 C 309.611 131.456, 308.099 131.399, 305.813 129.331 C 304.089 127.770, 303.886 127.774, 302.705 129.389 C 301.519 131.011, 301.296 130.991, 299.068 129.059 C 296.287 126.647, 295.137 126.480, 294.407 128.383 C 294.115 129.143, 291.368 130.554, 288.304 131.518 C 283.163 133.135, 282.660 133.144, 281.816 131.635 C 280.570 129.410, 279 129.572, 279 131.927 C 279 132.986, 279.788 134.059, 280.750 134.311 C 281.712 134.562, 280.813 134.820, 278.750 134.884 C 275.718 134.978, 275 135.379, 275 136.981 C 275 138.260, 274.114 139.184, 272.500 139.589 C 271.125 139.934, 270 140.506, 269.999 140.858 C 269.999 141.211, 267.445 141.487, 264.323 141.472 C 259.678 141.449, 258.220 141.871, 256.300 143.791 C 253.494 146.597, 250.622 146.338, 250.180 143.240 C 249.629 139.374, 248.317 140.790, 247.391 146.250 C 246.470 151.677, 244.907 152.841, 243.955 148.809 C 243.266 145.889, 239.664 145.655, 239.205 148.500 C 238.451 153.181, 238.104 153.315, 234.239 150.413 C 232.183 148.869, 230.275 147.347, 230 147.030 C 229.725 146.713, 228.286 145.682, 226.802 144.738 C 224.026 142.972, 222.558 143.684, 223.565 146.309 C 223.879 147.128, 223.656 148.095, 223.068 148.458 C 222.481 148.821, 222 148.465, 222 147.666 C 222 145.999, 219.908 145, 216.418 145 C 213.980 145, 213.050 147.295, 215 148.500 C 216.387 149.357, 216.258 152, 214.829 152 C 214.185 152, 212.947 151.389, 212.079 150.642 C 209.973 148.829, 204 146.871, 204 147.993 C 204 148.482, 204.450 149.160, 205 149.500 C 205.550 149.840, 206 150.541, 206 151.059 C 206 151.576, 203.698 150.762, 200.884 149.250 C 197.418 147.387, 195.625 146.880, 195.324 147.678 C 194.994 148.557, 193.561 148.465, 189.694 147.317 C 185.476 146.064, 183.888 146, 181.187 146.977 C 178.350 148.003, 177.111 147.880, 172.683 146.135 C 169.832 145.011, 162.627 142.697, 156.671 140.994 C 143.426 137.204, 125.606 130.675, 113.283 125.096 C 96.604 117.545, 58.909 110.803, 50.740 113.909 C 41.752 117.326, 42.093 138.558, 51.443 157.646 C 53.949 162.763, 56 167.236, 56 167.586 C 56 168.799, 63.207 187.562, 69.218 202 C 80.300 228.615, 86.491 239.632, 100.259 257.231 C 105.501 263.933, 110.257 271.715, 115.535 282.231 C 124.338 299.768, 131.646 310.602, 141.250 320.353 C 144.963 324.123, 148 327.368, 148 327.565 C 148 328.489, 139.009 336.931, 134.951 339.816 C 131.344 342.381, 130.150 343.989, 129.190 347.578 C 128.311 350.868, 127.164 352.569, 124.996 353.802 C 123.355 354.736, 122.010 355.837, 122.006 356.250 C 122.003 356.663, 120.831 357, 119.401 357 C 115.984 357, 110.177 359.801, 108.987 362.023 C 108.297 363.314, 108.593 364.484, 110.095 366.393 C 111.268 367.885, 111.644 369, 110.974 369 C 109.094 369, 103 372.144, 103 373.114 C 103 373.601, 104.475 374, 106.277 374 C 108.080 374, 110.563 374.706, 111.794 375.568 C 114.457 377.433, 113.789 379.493, 111.005 378.003 C 107.198 375.965, 105.241 377.994, 108.627 380.469 C 110.056 381.514, 110.093 382.134, 108.935 385.579 C 108.210 387.736, 106.369 390.745, 104.846 392.266 C 103.273 393.835, 102.318 395.664, 102.636 396.494 C 102.961 397.340, 101.892 399.262, 100.099 401.055 C 98.394 402.759, 97 404.569, 97 405.077 C 97 405.585, 96.395 406, 95.655 406 C 93.555 406, 90.683 409.732, 91.382 411.554 C 92.411 414.234, 88.406 418.833, 84.734 419.188 C 80.792 419.570, 79.766 422.474, 83.189 423.560 C 86.442 424.592, 87.931 426.935, 87.968 431.076 C 88.003 434.933, 91.260 439, 94.314 439 C 96.075 439, 96.479 440.817, 96.057 446.843 C 95.894 449.164, 96.464 450.783, 97.921 452.141 C 99.598 453.703, 99.807 454.492, 98.963 456.069 C 98.383 457.154, 98.252 458.595, 98.674 459.271 C 99.398 460.432, 100.211 473.024, 100.094 481.283 C 100.050 484.428, 100.465 485.226, 102.558 486.022 C 103.943 486.549, 106.679 488.069, 108.639 489.400 C 112.096 491.750, 112.139 491.855, 110.080 492.957 C 108.913 493.582, 107.447 493.776, 106.822 493.390 C 106.006 492.886, 105.857 493.938, 106.292 497.116 C 106.974 502.092, 106.661 502.807, 102.696 505.331 C 98.818 507.801, 98.367 509.697, 100.992 512.491 L 103.237 514.881 101.147 518.263 C 99.880 520.312, 96.963 522.703, 93.744 524.332 C 86.778 527.857, 78.939 534.199, 66.036 546.748 C 53.535 558.907, 53.119 559.213, 44.898 562.336 C 41.379 563.673, 33.340 567.417, 27.034 570.656 C 13.433 577.640, 10.344 581.020, 6.532 593.087 C 4.423 599.766, 4 603.059, 4 612.824 L 4 624.546 7.581 629.983 C 9.550 632.973, 12.467 636.907, 14.062 638.724 C 20.930 646.546, 20.918 646.390, 16.955 675.897 C 14.757 692.259, 14.690 694.280, 15.817 709.897 C 16.476 719.028, 17.928 730.550, 19.043 735.500 C 20.159 740.450, 21.454 747.650, 21.921 751.500 C 24.066 769.168, 29.500 796.570, 33.004 807.388 C 34.627 812.400, 36.414 819.762, 36.974 823.750 C 37.669 828.695, 39.598 834.576, 43.042 842.250 C 49.455 856.536, 53.071 861.855, 59.228 866.057 C 61.937 867.905, 64.600 870.253, 65.147 871.274 C 65.693 872.295, 67.433 881.989, 69.013 892.815 C 74.713 931.877, 80.385 945.566, 97.994 962.756 C 106.644 971.200, 110.186 973.883, 118.043 977.943 C 132.337 985.330, 141.284 988.019, 153.862 988.706 C 168.668 989.515, 169 989.685, 169 996.461 C 169 1001.476, 168.516 1004.417, 165.948 1015 C 165.481 1016.925, 164.843 1019.737, 164.530 1021.250 L 163.962 1024 361.112 1024 L 558.262 1024 557.577 1020.250 C 555.695 1009.936, 555.698 1009.232, 557.632 1008.203 C 559.710 1007.097, 568.620 1004.852, 580 1002.566 C 597.636 999.024, 621.530 991.557, 634.832 985.431 C 646.101 980.241, 658.768 972.117, 665.755 965.598 C 679.014 953.226, 689.615 935.969, 693.957 919.689 C 696.578 909.861, 698.108 885.397, 696.999 871.053 C 696.243 861.270, 696.378 858.582, 697.933 852.553 C 700.594 842.242, 703.141 823.957, 702.420 820.352 C 701.893 817.713, 702.362 816.605, 705.462 813.174 L 709.128 809.116 708.548 767.308 C 708.229 744.314, 707.892 723.700, 707.798 721.500 C 707.705 719.300, 707.995 711.425, 708.443 704 C 709.331 689.264, 708.211 680.822, 703.560 667.204 C 700.323 657.726, 692.333 640.981, 689.630 638.008 C 684.105 631.932, 681.181 625.677, 680.836 619.198 L 680.500 612.897 686.993 607.657 C 696.256 600.181, 699.675 592.454, 701.716 574.376 C 702.324 568.992, 700.774 566.217, 692.137 557.221 C 684.039 548.787, 676.400 544.746, 664.990 542.861 C 659.821 542.008, 656.018 540.579, 651.235 537.694 C 647.599 535.501, 641.927 532.611, 638.630 531.272 C 635.334 529.932, 627.431 526.343, 621.068 523.296 C 614.706 520.248, 605.487 516.012, 600.582 513.882 C 590.098 509.330, 587 507.443, 587 505.613 C 587 504.716, 588.207 504.310, 590.646 504.386 C 595.466 504.537, 595.793 502.972, 591.874 498.510 C 586.125 491.962, 587.250 486, 594.234 486 C 595.535 486, 597.145 485.455, 597.812 484.788 C 598.478 484.122, 600.818 483.707, 603.012 483.865 C 607.712 484.204, 608.231 482.753, 604.032 481.013 C 602.399 480.337, 599.432 477.792, 597.438 475.359 C 593.809 470.931, 593.453 468, 596.542 468 C 597.521 468, 598.018 467.330, 597.815 466.280 C 597.595 465.138, 595.975 464.255, 592.992 463.650 L 588.500 462.741 592.836 460.875 C 596.963 459.099, 599.820 456.584, 602.040 452.773 C 602.874 451.340, 602.446 450.795, 599.523 449.574 C 597.585 448.764, 596 447.870, 596 447.586 C 596 447.302, 597.408 445.466, 599.129 443.506 C 602.152 440.063, 602.198 439.876, 600.479 437.976 C 598.749 436.065, 598.789 435.992, 601.936 435.363 C 605.543 434.641, 606.819 432.692, 605.066 430.580 C 604.147 429.472, 604.642 428.473, 607.469 425.727 C 610.633 422.654, 610.854 422.123, 609.452 420.960 C 608.023 419.774, 608.021 419.568, 609.437 418.775 C 611.265 417.752, 611.342 416.772, 609.981 411.872 C 609.207 409.084, 608.340 408.115, 606.237 407.684 C 604.732 407.376, 602.600 406.436, 601.500 405.594 C 599.594 404.136, 599.677 404.062, 603.250 404.032 C 605.313 404.014, 607 403.622, 607 403.161 C 607 402.699, 608.125 401.808, 609.500 401.182 C 614.269 399.009, 612.243 398.044, 604.211 398.663 L 596.422 399.264 592.571 395.632 C 590.453 393.634, 588.333 392, 587.860 392 C 587.387 392, 587 391.052, 587 389.894 C 587 388.736, 585.650 386.083, 584 384 C 582.350 381.917, 581 379.939, 581 379.606 C 581 379.273, 582.831 379, 585.068 379 L 589.136 379 587.068 376.096 C 584.552 372.562, 584.425 370.814, 586.714 371.206 C 589.314 371.652, 589.339 368.800, 586.769 364.985 C 585.105 362.515, 582.725 360.888, 578.167 359.102 C 573.551 357.293, 570.144 354.943, 565.425 350.316 C 561.882 346.842, 558.372 344, 557.626 344 C 556.880 344, 555.173 343.137, 553.832 342.082 C 552.491 341.027, 549.714 339.849, 547.662 339.464 C 544.867 338.940, 543.529 337.990, 542.335 335.681 C 541.458 333.985, 540.124 331.981, 539.370 331.227 C 536.357 328.215, 538.091 324.608, 546.354 316.698 C 551.720 311.561, 552.277 310.673, 551.208 308.961 C 549.474 306.185, 549.617 306, 553.500 306 C 557.700 306, 557.810 305.455, 554.341 301.834 C 552.228 299.628, 551.696 298.127, 551.751 294.516 C 551.804 291.024, 551.378 289.738, 549.910 288.952 C 547.293 287.551, 547.502 286.725, 550.994 284.662 C 552.641 283.690, 554.280 281.732, 554.637 280.312 C 555.176 278.163, 554.590 277.088, 551.142 273.905 C 548.864 271.801, 547 269.457, 547 268.695 C 547 267.933, 546.100 266.495, 545 265.500 C 541.729 262.539, 542.527 259.048, 547.768 253.394 C 554.581 246.043, 559.745 231.960, 565.149 206 C 567.053 196.850, 567.345 192.157, 567.417 169.500 C 567.471 152.507, 567.036 140.382, 566.161 134.500 C 564.166 121.087, 562.298 110.391, 560.486 102 C 559.529 97.572, 558.543 86.103, 558.077 74 C 557.410 56.687, 556.947 52.567, 555.095 47.500 C 550.641 35.311, 550.524 32.928, 554.233 29.929 C 556.085 28.432, 556.100 28.174, 554.548 24.429 C 550.230 14.010, 551.597 14.992, 541.506 15.065 L 532.500 15.130 522.500 21.360 M 131 346.941 C 131 348.792, 133.034 349.089, 135.221 347.558 C 137.431 346.010, 137.425 346, 134.223 346 C 132.450 346, 131 346.423, 131 346.941" stroke="none" fill="#080404" fill-rule="evenodd"/></svg>