<svg xmlns="http://www.w3.org/2000/svg" width="709" height="1024" viewBox="0 0 709 1024" version="1.1"><path d="M 168.229 36.277 C 161.473 38.672, 153.944 44.016, 151.818 47.924 C 150.814 49.772, 150.557 55.841, 150.741 73.424 C 150.964 94.716, 151.296 98.533, 155.033 122.794 C 158.648 146.262, 158.962 149.705, 157.956 154.819 C 156.720 161.099, 157.342 164.502, 163.011 182.500 C 164.570 187.450, 166.349 195.775, 166.963 201 C 169.430 221.971, 175.152 240.074, 187.948 267.389 C 190.177 272.146, 192 276.255, 192 276.519 C 192 276.784, 191.100 277, 190 277 C 188.900 277, 188 277.648, 188 278.440 C 188 280.132, 173.080 294.921, 168 298.265 C 163.918 300.952, 162.401 305.651, 165.912 304.733 C 170.356 303.571, 167.202 307.155, 159.034 312.550 C 149.301 318.978, 143.730 327, 149 327 C 150.100 327, 151 327.381, 151 327.847 C 151 328.313, 150.100 329.732, 149 331 C 146.822 333.512, 146.365 336, 148.082 336 C 148.676 336, 148.194 337.568, 147.009 339.485 C 145.697 341.608, 145.100 343.741, 145.482 344.943 C 145.914 346.305, 145.472 347.313, 144.054 348.198 C 141.897 349.545, 141.309 352.455, 142.985 353.490 C 143.526 353.825, 147.885 354.312, 152.672 354.573 C 159.796 354.962, 161.929 355.472, 164.437 357.384 C 167.048 359.376, 167.528 360.442, 167.691 364.611 C 167.822 367.954, 167.257 370.565, 165.906 372.867 C 163.500 376.966, 162.295 384.446, 163.882 385.427 C 165.229 386.259, 165.352 392.015, 164.092 395.203 C 163.592 396.466, 162.219 400.525, 161.041 404.222 L 158.898 410.943 161.076 413.889 L 163.254 416.835 161.127 419.822 C 159.957 421.465, 159 423.663, 159 424.708 C 159 425.753, 157.425 428.134, 155.500 430 C 152.211 433.188, 150.932 437.222, 152.836 438.399 C 153.295 438.683, 153.465 441.402, 153.213 444.442 C 152.844 448.899, 153.069 450.089, 154.377 450.591 C 156.918 451.566, 156.400 452.325, 150.206 456.693 C 145.394 460.086, 128.764 477, 130.239 477 C 130.487 477, 128.951 478.828, 126.825 481.063 C 124.699 483.298, 123.221 485.548, 123.539 486.063 C 123.857 486.578, 123.696 487, 123.180 487 C 122.201 487, 119.531 492.590, 120.146 493.352 C 120.341 493.593, 119.600 494.814, 118.500 496.065 C 116.763 498.040, 116.731 498.255, 118.250 497.701 C 120.756 496.787, 120.412 498.508, 117.750 500.201 C 113.228 503.078, 102.516 504.922, 87.500 505.409 C 67.779 506.049, 53.332 507.480, 51.536 508.970 C 50.739 509.631, 49.665 509.911, 49.149 509.592 C 48.011 508.889, 47 511.266, 47 514.642 C 47 516.254, 48.802 519.025, 52.156 522.571 C 54.991 525.569, 57.090 528.244, 56.819 528.514 C 55.861 529.472, 33.517 532, 26.009 532 C 19.332 532, 17.843 532.353, 13.946 534.859 C 8.569 538.317, 5.476 541.677, 4.688 544.917 C 4.227 546.810, 4.903 548.119, 7.800 550.945 C 9.835 552.930, 12.562 555.230, 13.860 556.056 L 16.219 557.557 14.360 567.529 C 11.717 581.701, 11.730 607.020, 14.384 612 C 18.676 620.056, 32.370 637, 34.589 637 C 35.247 637, 36.045 637.675, 36.362 638.500 C 36.678 639.325, 37.626 640, 38.469 640 C 39.311 640, 40 640.360, 40 640.799 C 40 641.752, 46.653 644.299, 49.520 644.444 C 50.632 644.500, 53.901 645.998, 56.785 647.773 C 59.670 649.548, 62.226 651, 62.465 651 C 62.704 651, 64.835 652.284, 67.200 653.853 C 72.261 657.211, 77.147 659, 81.255 659 C 87.232 659, 96.369 662.090, 99.223 665.076 C 100.750 666.674, 102 668.650, 102 669.466 C 102 671.217, 92.447 680.516, 84.850 686.160 C 81.907 688.346, 76.988 692.804, 73.918 696.067 C 68.875 701.427, 64.893 703.947, 66.517 700.750 C 66.867 700.063, 66.198 700.625, 65.032 702 C 63.866 703.375, 61.582 705.898, 59.956 707.606 C 58.330 709.315, 57 711.050, 57 711.462 C 57 711.875, 55.875 713.097, 54.500 714.179 C 53.125 715.260, 52 716.679, 52 717.332 C 52 717.985, 51.100 719.081, 50 719.768 C 48.900 720.455, 48 721.688, 48 722.508 C 48 723.329, 47.550 724, 47 724 C 46.450 724, 46 724.675, 46 725.500 C 46 726.325, 45.550 727, 45 727 C 44.450 727, 44 727.627, 44 728.393 C 44 729.159, 43.325 730.045, 42.500 730.362 C 41.675 730.678, 41 731.578, 41 732.362 C 41 733.145, 40.325 734.045, 39.500 734.362 C 38.675 734.678, 38 735.626, 38 736.469 C 38 737.311, 37.523 738, 36.941 738 C 36.359 738, 36.160 738.450, 36.500 739 C 36.840 739.550, 36.615 740, 36 740 C 35.385 740, 35.160 740.450, 35.500 741 C 35.840 741.550, 35.566 742, 34.892 742 C 34.218 742, 33.951 742.284, 34.298 742.631 C 34.645 742.979, 34.399 744.216, 33.750 745.381 C 33.102 746.547, 32.499 747.837, 32.410 748.250 C 32.322 748.663, 32.138 749.225, 32 749.500 C 31.863 749.775, 31.656 750.337, 31.541 750.750 C 31.426 751.163, 30.795 752.799, 30.139 754.386 C 29.483 755.974, 28.827 757.999, 28.682 758.886 C 28.537 759.774, 27.172 763.200, 25.650 766.500 C 24.127 769.800, 22.808 772.725, 22.717 773 C 22.626 773.275, 21.866 774.302, 21.026 775.282 C 20.187 776.263, 19.704 777.163, 19.954 777.282 C 20.204 777.402, 19.638 778.400, 18.696 779.500 C 17.754 780.600, 16.900 781.950, 16.798 782.500 C 16.696 783.050, 15.815 784.356, 14.841 785.401 C 13.866 786.447, 13.305 787.685, 13.594 788.151 C 13.882 788.618, 13.689 789, 13.164 789 C 12.101 789, 5.303 802.498, 2.083 811 C 0.022 816.444, 0.001 817.558, 0.001 920.250 L 0 1024 348.897 1024 L 697.794 1024 697.347 1007.250 C 695.974 955.750, 694.888 946.923, 687.594 928 C 683.650 917.769, 680.358 903.037, 678.988 889.484 C 677.521 874.981, 675.360 864.055, 673.566 862.073 C 671.685 859.995, 671.521 858.650, 673.250 859.487 C 673.938 859.820, 673.487 859.342, 672.250 858.424 C 669.597 856.457, 669.448 854.565, 671.551 849.531 C 672.405 847.489, 672.689 846.074, 672.184 846.386 C 670.951 847.148, 669.661 829.284, 669.932 815.192 C 670.051 808.973, 669.719 803.348, 669.193 802.692 C 668.667 802.037, 668.038 797.675, 667.795 793 C 667.385 785.099, 666.997 783.830, 662.295 775 C 651.928 755.528, 647.252 748.528, 643.460 746.800 C 640.958 745.660, 639 742.074, 639 738.634 C 639 737.384, 637.200 733.949, 635 731 C 632.800 728.051, 631 725.146, 631 724.544 C 631 723.942, 629.664 720.761, 628.031 717.475 C 626.399 714.189, 625.049 710.747, 625.031 709.827 C 625.014 708.906, 623.441 706.111, 621.536 703.615 C 616.609 697.161, 610.059 684.206, 609.343 679.500 C 609.008 677.300, 608.102 674.771, 607.329 673.880 C 605.494 671.763, 607.226 667.674, 610.610 666.132 C 611.925 665.533, 613 664.393, 613 663.599 C 613 662.805, 615.213 660.208, 617.918 657.828 C 628.053 648.911, 632.585 628.256, 630.083 602.395 C 628.822 589.365, 629.462 585.623, 633.153 584.451 C 636.242 583.471, 637.280 580.390, 635.931 576.201 C 635.276 574.165, 634.331 571.983, 633.832 571.352 C 633.333 570.721, 632.730 569.197, 632.493 567.965 C 632.256 566.734, 631.437 565, 630.673 564.113 C 627.259 560.150, 625.821 550.390, 628.500 549.362 C 630.665 548.531, 630.390 547.036, 626.786 540.050 C 623.855 534.365, 623.723 533.735, 625.286 532.860 C 626.229 532.332, 627 531.347, 627 530.670 C 627 529.992, 628.350 528.929, 630 528.306 C 632.917 527.205, 634.171 523.842, 632.135 522.583 C 631.659 522.289, 631.022 520.521, 630.719 518.653 C 630.416 516.786, 629.271 513.288, 628.175 510.879 C 627.078 508.471, 625.852 504.741, 625.450 502.592 L 624.718 498.683 628.589 501.592 C 630.718 503.191, 633.207 505.120, 634.119 505.877 C 635.032 506.635, 638.866 508.556, 642.639 510.147 C 646.413 511.738, 650.774 513.706, 652.331 514.520 C 653.888 515.334, 655.801 516, 656.581 516 C 658.486 516, 658.400 512.367, 656.477 511.630 C 655.230 511.151, 655.175 510.693, 656.172 509.096 C 657.235 507.394, 656.856 506.567, 653.195 502.596 C 648.922 497.960, 648.671 497.392, 648.944 492.996 C 649.034 491.545, 647.631 488.426, 645.608 485.581 C 642.425 481.104, 642.244 480.490, 643.559 478.613 C 644.351 477.481, 645 475.327, 645 473.827 C 645 472.327, 645.596 470.740, 646.325 470.300 C 647.054 469.860, 647.927 468.746, 648.265 467.825 C 648.821 466.310, 649.371 466.279, 654.010 467.503 C 662.605 469.770, 671.908 470.460, 672.369 468.865 C 672.586 468.114, 673.348 465.561, 674.061 463.192 C 675.313 459.035, 675.234 458.650, 671.804 452.192 C 669.322 447.520, 667.740 442.632, 666.564 436 C 665.637 430.775, 664.214 424.217, 663.402 421.426 C 661.063 413.392, 661.142 410.682, 663.750 409.524 C 664.987 408.975, 666 408.122, 666 407.629 C 666 406.636, 659.791 389.137, 657.456 383.548 C 656.640 381.597, 655.304 380, 654.487 380 C 653.669 380, 653 379.469, 653 378.821 C 653 378.173, 651.407 376.183, 649.461 374.400 C 646.567 371.750, 646.041 370.687, 646.572 368.568 C 647.081 366.541, 646.478 365.055, 643.803 361.739 C 638.952 355.726, 636.266 350.785, 636.740 348.747 C 636.978 347.723, 635.840 345.686, 634.003 343.849 C 631.780 341.627, 631.015 340.078, 631.393 338.571 C 632.026 336.047, 629.304 331.539, 625.010 328 L 621.977 325.500 623.045 317.052 C 624.192 307.971, 626.507 300.163, 630.540 291.769 C 635.142 282.193, 637.004 279, 637.988 279 C 638.523 279, 640.299 276.138, 641.935 272.640 C 644.877 266.347, 644.903 266.139, 644.397 252.890 C 644.008 242.712, 644.377 235.782, 645.936 224 C 647.611 211.346, 647.990 202.991, 648 178.500 C 648.007 162, 647.565 145.125, 647.017 141 C 646.469 136.875, 645.097 125.625, 643.969 116 C 641.544 95.319, 639.507 84.345, 636.822 77.500 C 635.744 74.750, 633.783 68.688, 632.464 64.028 C 628.558 50.222, 622.723 44.157, 611.776 42.524 C 604.471 41.434, 590.502 46.586, 576.533 55.522 C 573.543 57.435, 570.803 59, 570.444 59 C 568.822 59, 549.205 75.737, 536.500 87.961 C 518.153 105.615, 513.340 110.503, 502.182 122.822 C 493.984 131.873, 482.008 143.695, 475.250 149.408 C 473.104 151.222, 472.910 151.229, 471.067 149.561 C 470.004 148.599, 469.395 147.134, 469.713 146.305 C 470.031 145.476, 469.689 144.426, 468.953 143.971 C 467.881 143.308, 467.852 142.621, 468.807 140.525 C 471.831 133.888, 468.760 129.622, 464.369 134.358 C 463.021 135.811, 461.244 137, 460.419 137 C 458.980 137, 454.730 139.621, 450.500 143.117 C 447.461 145.629, 444 146.448, 444 144.655 C 444 142.712, 436.864 141.467, 434.126 142.932 C 433.013 143.528, 431.517 144.832, 430.801 145.831 C 430.017 146.925, 428.320 147.617, 426.530 147.573 C 424.228 147.516, 423.253 148.132, 422.198 150.306 L 420.837 153.113 417.168 150.427 C 415.151 148.950, 412.816 146.978, 411.981 146.045 C 409.338 143.093, 405.426 140.988, 402.921 141.169 C 401.589 141.265, 398.410 139.916, 395.855 138.172 C 390.870 134.768, 385.605 133.980, 384.641 136.494 C 384.217 137.598, 383.471 137.762, 381.784 137.122 C 378.669 135.940, 372.478 134, 371.825 134 C 371.532 134, 370.078 135.125, 368.595 136.500 C 367.111 137.875, 364.715 139, 363.269 139 C 361.824 139, 359.180 139.529, 357.394 140.174 C 354.459 141.236, 353.808 141.091, 350.640 138.674 C 346.716 135.682, 344.285 135.340, 341.485 137.388 C 339.289 138.993, 337.280 138.034, 330.677 132.232 C 327.543 129.478, 326.327 128.989, 323.927 129.516 C 322.038 129.931, 321 129.758, 321 129.028 C 321 128.407, 319.456 127.253, 317.568 126.464 C 315.681 125.676, 313.835 124.542, 313.466 123.945 C 313.097 123.348, 312.054 122.554, 311.148 122.180 C 304.623 119.488, 285.122 104.793, 275.500 95.319 C 264.764 84.748, 257.538 79.047, 253.500 77.963 C 252.400 77.667, 250.600 75.756, 249.500 73.716 C 248.400 71.675, 247.003 70.004, 246.396 70.003 C 245.789 70.001, 244.078 68.875, 242.595 67.500 C 241.111 66.125, 239.268 65, 238.498 65 C 237.729 65, 236.731 64.341, 236.280 63.536 C 235.038 61.316, 221.640 52.375, 218.373 51.586 C 216.793 51.205, 213.617 50.542, 211.315 50.115 C 209.014 49.687, 205.487 48.024, 203.479 46.418 C 201.470 44.813, 198.742 42.825, 197.415 42 C 196.089 41.175, 195.003 39.712, 195.002 38.750 C 195.001 37.788, 194.887 36.984, 194.750 36.965 C 194.613 36.946, 190.900 36.280, 186.500 35.485 C 176.177 33.620, 175.659 33.642, 168.229 36.277 M 79.755 498.500 L 79.277 501 87.889 500.825 C 92.818 500.725, 94.602 500.483, 92.061 500.259 C 89.619 500.043, 86.400 498.997, 84.906 497.933 C 81.327 495.384, 80.330 495.494, 79.755 498.500" stroke="none" fill="#040404" fill-rule="evenodd"/></svg>