<?xml version="1.0" encoding="UTF-8"?>
<svg id="_Слой_1" data-name="Слой 1" xmlns="http://www.w3.org/2000/svg" viewBox="0 0 694.98 924.79">
  <defs>
    <style>
      .cls-1 {
        fill: #080404;
        fill-rule: evenodd;
      }
    </style>
  </defs>
  <path class="cls-1" d="M172.35,1.94c-5.98,2.01-14.21,7.8-17.32,12.19-1.28,1.81-1.49,5.8-1.29,24.66,.22,20.73,.56,24.58,4.35,49,3.77,24.26,4.02,27.02,2.93,32.63-1.27,6.55-.54,10.4,5.48,28.87,1.25,3.85,2.84,11.5,3.53,17,2.67,21.41,6.61,34.5,18.36,60.88,3.64,8.18,6.62,15.05,6.62,15.25s-.66,.37-1.46,.37-1.98,1.01-2.61,2.25c-1.5,2.94-18.06,18.73-19.65,18.74-1.7,0-4.6,4.67-3.76,6.03,.38,.61,1.32,.87,2.09,.58,2.41-.93,1.53,1.12-1.53,3.56-1.61,1.29-5.68,4.3-9.03,6.69-7.92,5.66-11.38,12.14-6.48,12.14,1.99,0,1.8,1.27-.66,4.4-1.52,1.93-1.81,3.01-1.05,3.93,.76,.91,.51,2.08-.87,4.19-1.17,1.79-1.7,3.81-1.35,5.21,.4,1.6-.07,2.8-1.6,4.04-1.34,1.08-1.93,2.37-1.55,3.37,.48,1.25,2.77,1.77,10.26,2.32,12.94,.95,15.01,2.36,15.1,10.28,.05,3.95-.53,6.74-1.84,8.98-2.44,4.13-3.56,9.85-2.11,10.75,2.37,1.46,.99,10.64-3.37,22.48-1.11,3.01-1.03,3.83,.69,6.74,1.94,3.29,1.94,3.32-.14,6.69-1.15,1.86-2.09,4.21-2.09,5.22s-1.68,3.56-3.73,5.65c-3.2,3.28-3.56,4.08-2.54,5.72,.73,1.17,.97,3.76,.61,6.76-.45,3.76-.21,5.16,1.04,6.2,2.56,2.12,1.89,3.32-4.33,7.76-3.21,2.29-10.05,8.96-15.2,14.83-10.35,11.81-16.19,21.33-15.29,24.94,.46,1.82,0,2.48-2.25,3.34-8.3,3.16-13.97,4.1-27.82,4.62-42.43,1.57-48.63,4.25-37.38,16.14,2.81,2.98,4.89,6.01,4.6,6.75-.61,1.59-17.3,3.74-29.02,3.73-5.17,0-8.83,.53-10.86,1.58-5.07,2.62-11.84,9.44-11.84,11.93,0,2.15,5.37,7.92,9.53,10.25,1.69,.95,1.72,1.59,.48,9.88-1.8,12.03-2.45,38.86-1.06,43.57,1.42,4.79,14.72,22.59,20.26,27.09,6.46,5.25,10.97,7.7,14.17,7.7,1.68,0,6.08,1.96,10.5,4.66,12.52,7.65,16.9,9.55,23.93,10.4,9.13,1.1,13.03,2.44,16.36,5.62,4.1,3.93,3.62,6.3-2.43,11.94-7.3,6.8-14.09,12.39-15.04,12.39-.86,0-10.97,10.63-11.53,12.12-.18,.49-1.39,.89-2.67,.89-1.75,0-4.42,2.56-10.69,10.25-17.28,21.22-21.33,27.82-26.81,43.75-3.93,11.42-4.98,13.57-13.92,28.37-15.07,24.95-19.08,39.17-19.08,67.64,0,24.57,3.26,45.31,9.59,60.98,4.28,10.61,13.72,26.36,22.46,37.49l6.67,8.5H366.86c262.28,.02,328.14-.23,328.12-1.23-.01-.69-.91-7.33-2-14.75s-1.98-17.23-1.98-21.78c0-4.99-.58-9.67-1.46-11.78-.8-1.92-1.23-4.09-.95-4.83,.28-.74-.19-4.35-1.04-8.04-.86-3.68-1.55-10.88-1.55-15.99,0-8.79-.17-9.52-3.08-13.54-1.69-2.34-4.62-5.6-6.5-7.25-3.8-3.34-4.21-5.68-1.92-11.14,1.73-4.14,1.97-15.41,.45-20.89-.57-2.05-1.17-7.99-1.33-13.2-.17-5.44-.8-10.08-1.49-10.91-.66-.79-1.43-5.35-1.73-10.12-.47-7.65-1.01-9.59-4.55-16.36-9.1-17.36-12.63-22.9-18.1-28.39-4.39-4.4-5.75-6.46-5.75-8.7,0-1.83-1.35-4.71-3.59-7.64-1.97-2.59-4.24-6.55-5.04-8.81-.8-2.26-2.07-5.05-2.82-6.2-.75-1.15-1.94-4.08-2.63-6.52-.69-2.44-2.55-6.23-4.12-8.43-5.11-7.15-7.8-11.56-7.8-12.82,0-.68-.64-2.14-1.42-3.26-.78-1.11-1.73-3.8-2.11-5.97-.38-2.17-1.32-4.94-2.07-6.15-1.8-2.87-.32-6.99,2.96-8.24,1.32-.5,2.68-2.04,3.02-3.42,.35-1.38,2.6-4.13,5.02-6.1,9.39-7.69,13.85-28,11.69-53.19-1.24-14.46-.72-17.27,3.52-19.21,4.05-1.84,3.6-5.43-2.19-17.75-4.67-9.93-5.78-16.64-2.92-17.74,2.11-.81,1.87-2.49-.94-6.58-4.78-6.97-4.29-9.1,3.41-14.95,1.88-1.43,2.21-2.2,1.38-3.24-.6-.75-1.41-3.16-1.81-5.36-.4-2.2-1.54-5.8-2.54-8-2.13-4.69-3.57-11.5-2.43-11.5,.44,0,2.96,1.82,5.6,4.05,2.64,2.23,7.4,5.17,10.56,6.54,3.17,1.37,7.56,3.37,9.76,4.45s4.56,1.96,5.25,1.96c1.76,0,1.56-2.95-.25-3.64-1.67-.64-2.07-3.36-.5-3.36,2.07,0,.85-2.45-3.59-7.2-3.81-4.07-4.48-5.35-3.94-7.51,.51-2.01-.19-3.82-3.06-7.99-2.81-4.07-3.43-5.67-2.56-6.54,.64-.64,1.15-2.41,1.15-3.95s.9-3.7,2-4.8,2-2.67,2-3.5c0-1.85,.5-1.86,6.43-.07,2.61,.79,7.61,1.74,11.11,2.11l6.36,.68,.63-2.86c.35-1.57,1.1-4.1,1.67-5.61,.89-2.36,.53-3.72-2.49-9.5-2.32-4.44-4.1-9.83-5.18-15.75-.91-4.95-2.3-11.21-3.1-13.9-.8-2.7-1.72-6.61-2.06-8.7-.56-3.48-.39-3.85,2.01-4.45,1.44-.36,2.62-.89,2.62-1.18,0-.82-6.97-20.45-8.26-23.26-1.2-2.61-2.36-4.05-8.2-10.2-2.81-2.96-3.41-4.26-2.97-6.5,.42-2.15-.12-3.52-2.35-5.93-3.81-4.13-8.06-11.55-7.5-13.11,.24-.68-.95-2.92-2.64-4.98-1.69-2.05-3.08-4.78-3.08-6.06,0-3.43-2.56-7.77-6.04-10.25-2.97-2.12-3.05-2.38-2.45-7.83,.34-3.1,1.08-8.12,1.64-11.14,1.18-6.32,7.46-21.96,9.48-23.61,.75-.61,1.37-1.78,1.37-2.6s1.39-2.94,3.08-4.72c5.47-5.73,6.24-8.94,6.1-25.41-.09-9.82,.53-19.8,1.83-29.5,1.58-11.76,1.97-20.5,1.98-44.16,0-16.23-.43-33.1-.97-37.5-.54-4.4-1.92-15.88-3.07-25.5-2.2-18.43-4.68-31.51-7.4-39-.9-2.47-2.9-8.64-4.44-13.71-1.54-5.07-4.05-10.84-5.57-12.84-2.94-3.85-8.55-6.78-15.16-7.89-5.48-.93-18.2,3.53-30.96,10.86-5.34,3.07-9.92,5.58-10.17,5.58-1.45,0-21.77,17.43-33.75,28.95-17.78,17.1-24.65,24.11-34.72,35.44-7.7,8.68-27.44,27.65-28.69,27.58-1.58-.08-4.21-2.97-3.61-3.94,.38-.61,.15-1.76-.51-2.55-.89-1.08-.91-2.23-.09-4.6,2.46-7.04-.16-10.23-4.53-5.51-1.35,1.45-2.99,2.64-3.66,2.65-.67,0-4.13,2.03-7.71,4.49-7.26,5.01-7.79,5.17-9.47,2.88-.75-1.02-2.77-1.67-5.46-1.74-3.42-.09-4.67,.38-6.29,2.37-1.36,1.68-3.02,2.49-5.13,2.49-2.42,0-3.41,.62-4.47,2.81-.9,1.87-1.75,2.51-2.52,1.94-.64-.48-4.22-3.25-7.95-6.16-4.57-3.57-7.41-5.13-8.71-4.79-1.16,.3-4.04-.84-7.22-2.87-5.7-3.64-9.21-4.29-10.51-1.95-.73,1.29-1.41,1.29-5.71,0-6.34-1.91-10.57-1.91-10.57-.01,0,.91-1.4,1.67-3.75,2.04-2.06,.32-5.42,1.09-7.46,1.69-3.37,1-4.03,.86-7.18-1.54-3.9-2.98-5.07-3.15-8.52-1.24-2.09,1.16-2.83,1.09-5.57-.53-1.74-1.02-4.22-2.99-5.51-4.37-1.57-1.67-3.43-2.51-5.57-2.51-5.33,0-37.58-22.13-49.36-33.86-8.58-8.55-18.96-16.73-23.38-18.42-.95-.37-2.67-2.25-3.81-4.19-1.14-1.94-2.53-3.52-3.09-3.52s-2.26-1.01-3.8-2.25c-6.68-5.38-19.42-14.33-21.5-15.1-4.3-1.59-8.53-2.65-10.57-2.66-1.34,0-3.58-.79-4.99-1.75-5.42-3.69-10.86-8.56-10.39-9.32,.8-1.3-1.4-2.13-9.42-3.54-9.41-1.66-8.4-1.71-15.77,.77M85.75,460.96c-1.51,.55-2.75,1.38-2.75,1.84s-.29,1.59-.64,2.51c-.58,1.52,.33,1.65,9.45,1.33,11.86-.41,14.21-1.65,9.08-4.78-3.67-2.24-10.39-2.64-15.13-.91"/>
</svg>